<svg id="ada9000fire_flat" xmlns="http://www.w3.org/2000/svg" xmlns:xlink="http://www.w3.org/1999/xlink" viewBox="0 0 5906 9900" shape-rendering="geometricPrecision" text-rendering="geometricPrecision" width="5906" height="9900">
<style><![CDATA[
#ada9000fire_flat-u-flame1 {animation: ada9000fire_flat-u-flame1_c_o 333.3333333333333ms linear infinite normal forwards}@keyframes ada9000fire_flat-u-flame1_c_o { 0% {opacity: 0} 75% {opacity: 0;animation-timing-function: step-start} 100% {opacity: 1}} #ada9000fire_flat-u-flame2 {animation: ada9000fire_flat-u-flame2_c_o 333.3333333333333ms linear infinite normal forwards}@keyframes ada9000fire_flat-u-flame2_c_o { 0% {opacity: 0} 50% {opacity: 0;animation-timing-function: step-start} 75% {opacity: 1;animation-timing-function: step-start} 80% {opacity: 0} 100% {opacity: 0}} #ada9000fire_flat-u-flame3 {animation: ada9000fire_flat-u-flame3_c_o 333.3333333333333ms linear infinite normal forwards}@keyframes ada9000fire_flat-u-flame3_c_o { 0% {opacity: 0} 25% {opacity: 0;animation-timing-function: step-start} 50% {opacity: 1;animation-timing-function: step-start} 55% {opacity: 0} 100% {opacity: 0}} #ada9000fire_flat-u-flame4 {animation: ada9000fire_flat-u-flame4_c_o 333.3333333333333ms linear infinite normal forwards}@keyframes ada9000fire_flat-u-flame4_c_o { 0% {opacity: 1;animation-timing-function: step-start} 25% {opacity: 1;animation-timing-function: step-start} 30% {opacity: 0} 100% {opacity: 0}}
]]></style>
<g id="ada9000fire_flat-u-flame1" transform="translate(-.00116-1732.509167)" opacity="0" clip-rule="evenodd"><g id="ada9000fire_flat-u-f1" transform="matrix(.938196 0 0 0.938196 182.508 530.032)" clip-rule="evenodd"><path id="ada9000fire_flat-s-path1" d="M1449.86,1775.22c787.61,0,747.36,1896.54,1835.89,1761.58c774.49-96.03,688.27,2294.78,1171.87,2294.78c263.67,0,970.77-1232.84,1170.58,118.28C5794.87,7076.88,5906,8210.15,5906,8575.97C5906,10205.8,4582.81,11529,2953,11529s-2953-1323.2-2953-2953.03C0,5794.34,534.273,1775.22,1449.86,1775.22Z" clip-rule="evenodd" fill="#ffe06d" fill-rule="evenodd" stroke-linecap="square" stroke-linejoin="round" stroke-miterlimit="1.5"/></g><g id="ada9000fire_flat-u-f" transform="matrix(.686301 0 0 0.686301 926.354 2749.73)" clip-rule="evenodd"><path id="ada9000fire_flat-s-path2" d="M1449.86,1775.22c787.61,0,218.66,2398.84,1503.14,2823.73c740.94,245.1,1021.02,1232.63,1504.62,1232.63c263.67,0,970.77-1232.84,1170.58,118.28C5794.87,7076.88,5906,8210.15,5906,8575.97C5906,10205.8,4582.81,11529,2953,11529s-2953-1323.2-2953-2953.03C0,5794.34,534.273,1775.22,1449.86,1775.22Z" clip-rule="evenodd" fill="#ff716d" fill-rule="evenodd" stroke-linecap="square" stroke-linejoin="round" stroke-miterlimit="1.5"/></g><g id="ada9000fire_flat-u-f2" transform="translate(570.337 913.632)" clip-rule="evenodd"><path id="ada9000fire_flat-s-path3" d="M4243.26,2871.64c165.67,0,300.18,317.31,300.18,482.98s-134.51,300.18-300.18,300.18-300.18-134.51-300.18-300.18s134.51-482.98,300.18-482.98Z" clip-rule="evenodd" fill="#ffe06d" fill-rule="evenodd" stroke-linecap="square" stroke-linejoin="round" stroke-miterlimit="1.5"/></g></g><g id="ada9000fire_flat-u-flame2" transform="translate(-.00116-1732.509167)" opacity="0" clip-rule="evenodd"><g id="ada9000fire_flat-u-f11" transform="matrix(.938196 0 0 0.938196 182.508 530.032)" clip-rule="evenodd"><path id="ada9000fire_flat-s-path4" d="M1760.22,2976.96c787.61,0,712.16,1462.43,1800.69,1327.47c774.49-96.03,363.58-2152.29,1215.28-2152.29c851.69,0,1129.81,3401.14,1129.81,6423.83C5906,10205.8,4582.81,11529,2953,11529s-2953-1323.2-2953-2953.03C0,5794.34,844.626,2976.96,1760.22,2976.96Z" clip-rule="evenodd" fill="#ffe06d" fill-rule="evenodd" stroke-linecap="square" stroke-linejoin="round" stroke-miterlimit="1.5"/></g><g id="ada9000fire_flat-u-f3" transform="matrix(.686301 0 0 0.686301 926.354 2749.73)" clip-rule="evenodd"><path id="ada9000fire_flat-s-path5" d="M1462.99,3052.39c1089.92,0,934.8,1313.84,1927.4,1546.56c1278.55,299.78,1471.1-1705.19,2045.48-1667.5c497.16,32.63,843.02,2478.54,808.16,4798.74C6226.92,8869.34,5906,8210.15,5906,8575.97C5906,10205.8,4582.81,11529,2953,11529s-3204.933-1281.2-3204.933-2911.04c0-2781.63,799.328-5565.57,1714.923-5565.57Z" clip-rule="evenodd" fill="#ff716d" fill-rule="evenodd" stroke-linecap="square" stroke-linejoin="round" stroke-miterlimit="1.5"/></g><g id="ada9000fire_flat-u-f4" transform="translate(-1290.26-70.9486)" clip-rule="evenodd"><path id="ada9000fire_flat-s-path6" d="M4175.63,2773.28c162.38-32.89,391,417.3,367.81,581.34-27.7,195.89-366.55,223.88-442.1-12.3-50.47-157.79-47.12-544.45,74.29-569.04Z" clip-rule="evenodd" fill="#ffe06d" fill-rule="evenodd" stroke-linecap="square" stroke-linejoin="round" stroke-miterlimit="1.5"/></g></g><g id="ada9000fire_flat-u-flame3" transform="translate(-.00116-1732.509167)" opacity="0" clip-rule="evenodd"><g id="ada9000fire_flat-u-f12" transform="matrix(.938196 0 0 0.938196 182.508 530.032)" clip-rule="evenodd"><path id="ada9000fire_flat-s-path7" d="M1449.86,3183.01c787.61,0,747.36,1896.54,1835.89,1761.57c774.49-96.02,688.27,887,1171.87,887c263.67,0,970.77-1232.84,1170.58,118.28C5794.87,7076.88,5906,8210.15,5906,8575.97C5906,10205.8,4582.81,11529,2953,11529s-2953-1323.2-2953-2953.03C0,5794.34,534.273,3183.01,1449.86,3183.01Z" clip-rule="evenodd" fill="#ffe06d" fill-rule="evenodd" stroke-linecap="square" stroke-linejoin="round" stroke-miterlimit="1.5"/></g><g id="ada9000fire_flat-u-f5" transform="matrix(.686301 0 0 0.686301 926.354 2749.73)" clip-rule="evenodd"><path id="ada9000fire_flat-s-path8" d="M907.508,4598.95c787.612,0,761.012,852.27,2045.492,1277.16c740.94,245.1,2953,1319.31,2953,2699.86C5906,10205.8,4582.81,11529,2953,11529s-2953-1323.2-2953-2953.03c0-2781.63-8.082-3977.02,907.508-3977.02Z" clip-rule="evenodd" fill="#ff716d" fill-rule="evenodd" stroke-linecap="square" stroke-linejoin="round" stroke-miterlimit="1.5"/></g><g id="ada9000fire_flat-u-f6" transform="translate(296.154 1554.21)" clip-rule="evenodd"><path id="ada9000fire_flat-s-path9" d="M4243.26,2871.64c182.88,9.84,200.97,405.12,122.23,612.08-53.76,141.33-412.23,151.75-422.41-129.1-6-165.57,134.74-491.87,300.18-482.98Z" clip-rule="evenodd" fill="#ffe06d" fill-rule="evenodd" stroke-linecap="square" stroke-linejoin="round" stroke-miterlimit="1.5"/></g><g id="ada9000fire_flat-u-f7" transform="matrix(.960532-.278171 0.278171 0.960532-899.789 2026.3)" clip-rule="evenodd"><path id="ada9000fire_flat-s-path10" d="M4216.8,2952.53c72.73,2.42,154.1,149.92,77.87,271.51-54.81,87.44-205.01,22.1-213.88-50.41-10.26-83.82,60.28-223.62,136.01-221.1Z" clip-rule="evenodd" fill="#ffe06d" fill-rule="evenodd" stroke-linecap="square" stroke-linejoin="round" stroke-miterlimit="1.5"/></g></g><g id="ada9000fire_flat-u-flame4" transform="translate(-.00116-1732.509167)" clip-rule="evenodd"><g id="ada9000fire_flat-u-f13" transform="matrix(.938196 0 0 0.938196 182.508 530.032)" clip-rule="evenodd"><path id="ada9000fire_flat-s-path11" d="M936.825,5446.66c417.995-575.91,727.105-1460.23,975.695-2244.38c280.58-885.06,607.74-1825.93,1261.25-1821.15c599.69,4.39,666.66,1578.07,926.35,2603.74c130.9,516.96,474.17,1114.58,1040.51,1745.24C5424.05,6045.72,5906,6946.16,5906,8575.97C5906,10205.8,4582.81,11529,2953,11529s-2953-1323.2-2953-2953.03C0,6946.16,399.017,6187.65,936.825,5446.66Z" clip-rule="evenodd" fill="#ffe06d" fill-rule="evenodd" stroke-linecap="square" stroke-linejoin="round" stroke-miterlimit="1.5"/></g><g id="ada9000fire_flat-u-f8" transform="matrix(.686301 0 0 0.686301 926.354 2749.73)" clip-rule="evenodd"><path id="ada9000fire_flat-s-path12" d="M1096.46,4895.54c526.08-465.09,766.72-1765.65,1358.75-1765.65s824.49,925.09,1202.73,1248.73c655.45,560.85,1541.64,614.95,1970.26,1571.24C6094.16,6989.49,5906,8210.15,5906,8575.97C5906,10205.8,4582.81,11529,2953,11529s-2953-1323.2-2953-2953.03C0,5794.34,410.5,5501.98,1096.46,4895.54Z" clip-rule="evenodd" fill="#ff716d" fill-rule="evenodd" stroke-linecap="square" stroke-linejoin="round" stroke-miterlimit="1.5"/></g><g id="ada9000fire_flat-u-f9" transform="matrix(.674957-.00773 0.011013 0.961608 1876.05-618.145)" clip-rule="evenodd"><path id="ada9000fire_flat-s-path13" d="M4243.26,2871.64c165.67,0,300.18,317.31,300.18,482.98s-134.51,300.18-300.18,300.18-300.18-134.51-300.18-300.18s134.51-482.98,300.18-482.98Z" clip-rule="evenodd" fill="#ffe06d" fill-rule="evenodd" stroke-linecap="square" stroke-linejoin="round" stroke-miterlimit="1.5"/></g></g><g id="ada9000fire_flat-u-_9000" transform="matrix(-3.08968 0 0 3.08968 12855.69884 253.070833)" clip-rule="evenodd"><path id="ada9000fire_flat-u-bottom" d="M3455.1,2133.03c0-137.98,112.02-250,250-250s250,112.02,250,250c0,413.94-336.06,750-750,750-413.93,0-750-336.06-750-750v-.81c.45-137.61,112.3-249.19,250-249.19c137.98,0,250,112.02,250,250c0,.28,0,.55,0,.84.45,137.59,112.3,249.16,250,249.16c137.98,0,250-112.02,250-250v0Z" clip-rule="evenodd" fill="#ff94f8" fill-rule="evenodd" stroke="#333" stroke-width="32.37" stroke-linecap="square" stroke-linejoin="round" stroke-miterlimit="1.5"/><g id="ada9000fire_flat-u-top" transform="matrix(-1 0 0-1 6410.21 4266.06)" clip-rule="evenodd"><path id="ada9000fire_flat-s-path14" d="M3455.1,2133.03c0-137.98,112.02-250,250-250s250,112.02,250,250c0,413.94-336.06,750-750,750-413.93,0-750-336.06-750-750v-.81c.45-137.61,112.3-249.19,250-249.19c137.98,0,250,112.02,250,250c0,.28,0,.55,0,.84.45,137.59,112.3,249.16,250,249.16c137.98,0,250-112.02,250-250v0Z" clip-rule="evenodd" fill="#36d5ff" fill-rule="evenodd" stroke="#333" stroke-width="32.37" stroke-linecap="square" stroke-linejoin="round" stroke-miterlimit="1.5"/></g><path id="ada9000fire_flat-u-right_overlap" d="M2455.1,2133.03c0-137.98,112.02-250,250-250s250,112.02,250,250c0,.28,0,.55,0,.84v.08v706.34c-291.16-102.98-500-380.95-500-707.26Z" clip-rule="evenodd" fill="#ffe" fill-rule="evenodd" stroke="#333" stroke-width="32.37" stroke-linecap="square" stroke-linejoin="round" stroke-miterlimit="1.5"/><g id="ada9000fire_flat-u-eyes" clip-rule="evenodd"><g id="ada9000fire_flat-u-eye" transform="matrix(-.402182 0 0 0.402182 4048.39 1168.1)" clip-rule="evenodd"><g id="ada9000fire_flat-s-g1" transform="matrix(.730461 0 0 0.826087 1092.39-84.924)" clip-rule="evenodd"><path id="ada9000fire_flat-s-path15" d="M3133,2953.26v.74c0,126.94,103.06,238.07,230,238.07h.74c126.61-.42,208.1-111.38,208.1-238.07c0-126.94-81.9-230-208.84-230-126.69,0-229.59,102.65-230,229.26Z" transform="matrix(1.27204 0 0 1.058827-841.910354-169.650903)" clip-rule="evenodd" fill-opacity="0.4" fill-rule="evenodd" stroke-linecap="square" stroke-linejoin="round" stroke-miterlimit="1.5"/></g><g id="ada9000fire_flat-s-g2" transform="matrix(.737849 0 0 0.737849 428.981 220.375)" clip-rule="evenodd"><path id="ada9000fire_flat-s-path16" d="M4287.35,2583.08c-176.52,0-319.82,143.31-319.82,319.82s143.3,319.81,319.82,319.81c176.51,0,319.81-143.3,319.81-319.81s-143.3-319.82-319.81-319.82Zm0,60c143.39,0,259.81,116.42,259.81,259.82c0,143.39-116.42,259.81-259.81,259.81-143.4,0-259.82-116.42-259.82-259.81c0-143.4,116.42-259.82,259.82-259.82Z" clip-rule="evenodd" fill="#333" fill-rule="evenodd" stroke-linecap="square" stroke-linejoin="round" stroke-miterlimit="1.5"/></g></g><g id="ada9000fire_flat-u-eye1" transform="matrix(-.402182 0 0 0.402182 4253.93 1168.1)" clip-rule="evenodd"><g id="ada9000fire_flat-s-g3" transform="matrix(.730461 0 0 0.826087 1092.39-84.924)" clip-rule="evenodd"><path id="ada9000fire_flat-s-path17" d="M3133,2953.26v.74c0,126.94,103.06,238.07,230,238.07h.74c126.61-.42,208.1-111.38,208.1-238.07c0-126.94-81.9-230-208.84-230-126.69,0-229.59,102.65-230,229.26Z" transform="matrix(1.302386 0 0 1.052208-943.642895-154.433093)" clip-rule="evenodd" fill-opacity="0.4" fill-rule="evenodd" stroke-linecap="square" stroke-linejoin="round" stroke-miterlimit="1.5"/></g><g id="ada9000fire_flat-s-g4" transform="matrix(.737849 0 0 0.737849 428.981 220.375)" clip-rule="evenodd"><path id="ada9000fire_flat-s-path18" d="M4287.35,2583.08c-176.52,0-319.82,143.31-319.82,319.82s143.3,319.81,319.82,319.81c176.51,0,319.81-143.3,319.81-319.81s-143.3-319.82-319.81-319.82Zm0,60c143.39,0,259.81,116.42,259.81,259.82c0,143.39-116.42,259.81-259.81,259.81-143.4,0-259.82-116.42-259.82-259.81c0-143.4,116.42-259.82,259.82-259.82Z" clip-rule="evenodd" fill="#333" fill-rule="evenodd" stroke-linecap="square" stroke-linejoin="round" stroke-miterlimit="1.5"/></g></g></g></g></svg>
